<svg width="404" height="405" viewBox="0 0 404 405" fill="none" xmlns="http://www.w3.org/2000/svg">
<mask id="mask0_847_810" style="mask-type:alpha" maskUnits="userSpaceOnUse" x="0" y="0" width="404" height="405">
<circle cx="201.891" cy="202.25" r="201.891" fill="#00B140"/>
</mask>
<g mask="url(#mask0_847_810)">
<rect x="-21.353" y="-1.58301" width="425.137" height="442.608" fill="#00B140"/>
<path d="M252.071 138C239.529 138 229.146 147.185 227.132 159.227C225.119 147.182 214.736 138 202.194 138C189.652 138 179.269 147.185 177.255 159.227C175.242 147.182 164.859 138 152.317 138C138.335 138 127 149.405 127 163.473C127 177.541 138.335 188.947 152.317 188.947C164.859 188.947 175.242 179.761 177.255 167.72C179.269 179.764 189.652 188.947 202.194 188.947C214.736 188.947 225.119 179.761 227.132 167.72C229.146 179.764 239.529 188.947 252.071 188.947C266.052 188.947 277.388 177.541 277.388 163.473C277.388 149.405 266.052 138 252.071 138V138Z" fill="white"/>
<path d="M252.071 214.55C239.529 214.55 229.146 223.735 227.132 235.777C225.119 223.732 214.736 214.55 202.194 214.55C189.652 214.55 179.269 223.735 177.255 235.777C175.242 223.732 164.859 214.55 152.317 214.55C138.335 214.55 127 225.955 127 240.023C127 254.091 138.335 265.496 152.317 265.496C164.859 265.496 175.242 256.311 177.255 244.27C179.269 256.314 189.652 265.496 202.194 265.496C214.736 265.496 225.119 256.311 227.132 244.27C229.146 256.314 239.529 265.496 252.071 265.496C266.052 265.496 277.388 254.091 277.388 240.023C277.388 225.955 266.052 214.55 252.071 214.55V214.55Z" fill="white"/>
</g>
</svg>
